REM DIRINDEX 1\2,1\3,1\4,1\5,1\6
REM DIRNAME folder01,folder02,folder03,folder04,folder05,folder06
TITLE ""
FILE "DISC5Track22.mp3" MP3
  TRACK 01 AUDIO
    TITLE "0:"
    INDEX 01 00:00:00
  TRACK 02 AUDIO
    TITLE "3:cjc129_4508"
    INDEX 01 00:00:05
  TRACK 03 AUDIO
    TITLE "0:"
    INDEX 01 00:01:38
  TRACK 04 AUDIO
    TITLE "5:cjc129_4509"
    INDEX 01 00:01:69
  TRACK 05 AUDIO
    TITLE "0:"
    INDEX 01 00:03:64
  TRACK 06 AUDIO
    TITLE "4:cjc129_4510"
    INDEX 01 00:04:54
  TRACK 07 AUDIO
    TITLE "0:"
    INDEX 01 00:06:12
  TRACK 08 AUDIO
    TITLE "6:cjc129_4511"
    INDEX 01 00:06:45
  TRACK 09 AUDIO
    TITLE "0:"
    INDEX 01 00:12:05
  TRACK 10 AUDIO
    TITLE "3:cjc129_4512"
    INDEX 01 00:13:55
  TRACK 11 AUDIO
    TITLE "0:"
    INDEX 01 00:14:74
  TRACK 12 AUDIO
    TITLE "5:cjc129_4513"
    INDEX 01 00:15:32
  TRACK 13 AUDIO
    TITLE "0:"
    INDEX 01 00:18:31
  TRACK 14 AUDIO
    TITLE "4:cjc129_4514"
    INDEX 01 00:19:22
  TRACK 15 AUDIO
    TITLE "0:"
    INDEX 01 00:20:41
  TRACK 16 AUDIO
    TITLE "6:cjc129_4515"
    INDEX 01 00:21:00
  TRACK 17 AUDIO
    TITLE "0:"
    INDEX 01 00:24:74
  TRACK 18 AUDIO
    TITLE "3:cjc129_4516"
    INDEX 01 00:26:50
  TRACK 19 AUDIO
    TITLE "0:"
    INDEX 01 00:28:00
  TRACK 20 AUDIO
    TITLE "5:cjc129_4517"
    INDEX 01 00:28:35
  TRACK 21 AUDIO
    TITLE "0:"
    INDEX 01 00:31:47
  TRACK 22 AUDIO
    TITLE "4:cjc129_4518"
    INDEX 01 00:32:37
  TRACK 23 AUDIO
    TITLE "0:"
    INDEX 01 00:33:64
  TRACK 24 AUDIO
    TITLE "6:cjc129_4519"
    INDEX 01 00:34:22
  TRACK 25 AUDIO
    TITLE "0:"
    INDEX 01 00:39:62
  TRACK 26 AUDIO
    TITLE "3:cjc129_4520"
    INDEX 01 00:41:38
  TRACK 27 AUDIO
    TITLE "0:"
    INDEX 01 00:43:07
  TRACK 28 AUDIO
    TITLE "5:cjc129_4521"
    INDEX 01 00:43:40
  TRACK 29 AUDIO
    TITLE "0:"
    INDEX 01 00:46:35
  TRACK 30 AUDIO
    TITLE "4:cjc129_4522"
    INDEX 01 00:47:23
  TRACK 31 AUDIO
    TITLE "0:"
    INDEX 01 00:48:67
  TRACK 32 AUDIO
    TITLE "6:cjc129_4523"
    INDEX 01 00:49:25
  TRACK 33 AUDIO
    TITLE "0:"
    INDEX 01 00:53:15
  TRACK 34 AUDIO
    TITLE "3:cjc129_4524"
    INDEX 01 00:54:68
  TRACK 35 AUDIO
    TITLE "0:"
    INDEX 01 00:56:37
  TRACK 36 AUDIO
    TITLE "5:cjc129_4525"
    INDEX 01 00:56:71
  TRACK 37 AUDIO
    TITLE "0:"
    INDEX 01 00:58:28
  TRACK 38 AUDIO
    TITLE "4:cjc129_4526"
    INDEX 01 00:59:18
  TRACK 39 AUDIO
    TITLE "0:"
    INDEX 01 01:00:62
  TRACK 40 AUDIO
    TITLE "6:cjc129_4527"
    INDEX 01 01:01:21
  TRACK 41 AUDIO
    TITLE "0:"
    INDEX 01 01:04:03
  TRACK 42 AUDIO
    TITLE "3:cjc129_4528"
    INDEX 01 01:05:52
  TRACK 43 AUDIO
    TITLE "0:"
    INDEX 01 01:06:73
  TRACK 44 AUDIO
    TITLE "5:cjc129_4529"
    INDEX 01 01:08:44
  TRACK 45 AUDIO
    TITLE "0:"
    INDEX 01 01:10:71
  TRACK 46 AUDIO
    TITLE "4:cjc129_4530"
    INDEX 01 01:11:62
  TRACK 47 AUDIO
    TITLE "0:"
    INDEX 01 01:13:06
  TRACK 48 AUDIO
    TITLE "6:cjc129_4531"
    INDEX 01 01:13:40
  TRACK 49 AUDIO
    TITLE "0:"
    INDEX 01 01:17:28
  TRACK 50 AUDIO
    TITLE "3:cjc129_4532"
    INDEX 01 01:19:05
  TRACK 51 AUDIO
    TITLE "0:"
    INDEX 01 01:20:26
  TRACK 52 AUDIO
    TITLE "5:cjc129_4533"
    INDEX 01 01:21:63
  TRACK 53 AUDIO
    TITLE "0:"
    INDEX 01 01:26:30
  TRACK 54 AUDIO
    TITLE "4:cjc129_4534"
    INDEX 01 01:27:24
  TRACK 55 AUDIO
    TITLE "0:"
    INDEX 01 01:28:45
  TRACK 56 AUDIO
    TITLE "6:cjc129_4535"
    INDEX 01 01:29:03
  TRACK 57 AUDIO
    TITLE "0:"
    INDEX 01 01:33:60
  TRACK 58 AUDIO
    TITLE "3:cjc129_4536"
    INDEX 01 01:35:37
  TRACK 59 AUDIO
    TITLE "0:"
    INDEX 01 01:39:41
  TRACK 60 AUDIO
    TITLE "5:cjc129_4537"
    INDEX 01 01:39:72
  TRACK 61 AUDIO
    TITLE "0:"
    INDEX 01 01:42:35
  TRACK 62 AUDIO
    TITLE "4:cjc129_4538"
    INDEX 01 01:43:25
  TRACK 63 AUDIO
    TITLE "0:"
    INDEX 01 01:47:27
  TRACK 64 AUDIO
    TITLE "6:cjc129_4539"
    INDEX 01 01:47:60
  TRACK 65 AUDIO
    TITLE "0:"
    INDEX 01 01:52:49
